<svg width="17" height="21" viewBox="0 0 17 21" fill="none" xmlns="http://www.w3.org/2000/svg">
<path d="M3.48269 9.08436H9.15664C9.99104 9.08436 10.6864 8.85258 11.2427 8.38902C11.7989 7.90692 12.0771 7.22086 12.0771 6.33083C12.0771 5.32954 11.8267 4.62493 11.3261 4.217C10.8254 3.80907 10.1023 3.60511 9.15664 3.60511H3.48269V9.08436ZM0.00600737 0.768132H9.65728C11.4373 0.768132 12.8651 1.17606 13.9406 1.99193C15.016 2.80779 15.5537 4.04085 15.5537 5.69112C15.5537 6.6924 15.3034 7.55462 14.8028 8.27777C14.3207 8.98238 13.6253 9.52938 12.7168 9.91877V9.97439C13.9406 10.234 14.8677 10.8181 15.4981 11.7266C16.1286 12.6167 16.4438 13.7385 16.4438 15.0921C16.4438 15.8708 16.3047 16.6033 16.0266 17.2893C15.7484 17.9569 15.3127 18.5409 14.7193 19.0416C14.126 19.5237 13.3657 19.9131 12.4386 20.2098C11.5115 20.4879 10.4082 20.627 9.12883 20.627H0.00600737V0.768132ZM3.48269 17.79H9.62947C10.6864 17.79 11.5022 17.5211 12.0771 16.9834C12.6704 16.4271 12.9671 15.6483 12.9671 14.6471C12.9671 13.6643 12.6704 12.9133 12.0771 12.3942C11.5022 11.8564 10.6864 11.5876 9.62947 11.5876H3.48269V17.79Z" fill="#5E5E5E"/>
</svg>
