<svg width="15" height="21" viewBox="0 0 15 21" fill="none" xmlns="http://www.w3.org/2000/svg">
<path d="M9.21212 19.7109L9.04915 20.2591H0.782145L0.989561 19.7109C1.81922 19.6912 2.36739 19.622 2.63407 19.5035C3.06866 19.3356 3.38966 19.1035 3.59707 18.8072C3.92301 18.343 4.25883 17.5133 4.60452 16.3182L8.10096 4.19919C8.39727 3.19174 8.54542 2.43121 8.54542 1.91761C8.54542 1.66081 8.48122 1.44352 8.35282 1.26573C8.22442 1.08795 8.02688 0.954609 7.76021 0.865717C7.5034 0.766947 6.99474 0.717563 6.23422 0.717563L6.412 0.169392H14.1753L14.0123 0.717563C13.3802 0.707686 12.911 0.776824 12.6048 0.924979C12.1604 1.12252 11.8196 1.40401 11.5826 1.76946C11.3554 2.1349 11.0591 2.94481 10.6937 4.19919L7.21203 16.3182C6.89597 17.4343 6.73794 18.1454 6.73794 18.4516C6.73794 18.6985 6.7972 18.9109 6.91573 19.0887C7.04413 19.2566 7.24167 19.3899 7.50834 19.4887C7.7849 19.5776 8.35282 19.6517 9.21212 19.7109Z" fill="#5E5E5E"/>
</svg>
