<svg width="26" height="26" viewBox="0 0 26 26" fill="none" xmlns="http://www.w3.org/2000/svg">
<path d="M10.9395 14.0121C11.392 14.617 11.9692 15.1175 12.6321 15.4796C13.295 15.8418 14.028 16.0572 14.7814 16.1111C15.5349 16.1651 16.2911 16.0564 16.9988 15.7924C17.7065 15.5284 18.3492 15.1152 18.8832 14.581L22.0439 11.4204C23.0034 10.4269 23.5344 9.09627 23.5224 7.71509C23.5104 6.33392 22.9564 5.01271 21.9797 4.03604C21.003 3.05936 19.6818 2.50537 18.3006 2.49336C16.9195 2.48136 15.5888 3.01232 14.5953 3.97187L12.7832 5.77343" stroke="#5E5E5E" stroke-width="2.27565" stroke-linecap="round" stroke-linejoin="round"/>
<path d="M15.1537 11.905C14.7013 11.3002 14.124 10.7997 13.4612 10.4375C12.7983 10.0754 12.0653 9.85999 11.3118 9.80603C10.5584 9.75207 9.80217 9.86078 9.09444 10.1248C8.38672 10.3888 7.74405 10.8019 7.21002 11.3361L4.0494 14.4967C3.08985 15.4902 2.55889 16.8209 2.57089 18.2021C2.5829 19.5832 3.13689 20.9044 4.11357 21.8811C5.09024 22.8578 6.41145 23.4118 7.79262 23.4238C9.1738 23.4358 10.5044 22.9048 11.4979 21.9453L13.2995 20.1437" stroke="#5E5E5E" stroke-width="2.27565" stroke-linecap="round" stroke-linejoin="round"/>
</svg>
