<svg width="15" height="20" viewBox="0 0 15 20" fill="none" xmlns="http://www.w3.org/2000/svg">
<path d="M2.61153 13.2032C2.94192 14.7844 3.53191 15.9053 4.38148 16.5661C5.25466 17.2033 6.49362 17.5219 8.09837 17.5219C8.87715 17.5219 9.54973 17.4275 10.1161 17.2387C10.6825 17.0499 11.1427 16.8021 11.4967 16.4953C11.8743 16.1649 12.1575 15.7991 12.3462 15.3979C12.535 14.9968 12.6294 14.572 12.6294 14.1236C12.6294 13.2268 12.3344 12.566 11.7445 12.1412C11.1781 11.6928 10.4583 11.3507 9.58513 11.1147C8.71196 10.8551 7.76798 10.6427 6.75321 10.4775C5.73844 10.2887 4.79447 10.0173 3.9213 9.66331C3.04812 9.30932 2.31654 8.80193 1.72656 8.14115C1.16018 7.48037 0.876984 6.5482 0.876984 5.34463C0.876984 3.81068 1.43157 2.55991 2.54074 1.59234C3.6735 0.601172 5.26646 0.105587 7.3196 0.105587C9.30194 0.105587 10.9067 0.553973 12.1339 1.45075C13.3846 2.32392 14.1398 3.79888 14.3994 5.87562H12.2401C12.0513 4.45966 11.5085 3.46849 10.6117 2.9021C9.73852 2.31212 8.62936 2.01713 7.2842 2.01713C5.93904 2.01713 4.91247 2.31212 4.20449 2.9021C3.49651 3.46849 3.14252 4.22367 3.14252 5.16764C3.14252 5.99361 3.42571 6.6308 3.99209 7.07918C4.58208 7.50397 5.31365 7.85796 6.18683 8.14115C7.06 8.40074 8.00398 8.63674 9.01875 8.84913C10.0335 9.06152 10.9775 9.36832 11.8507 9.7695C12.7238 10.1471 13.4436 10.6663 14.01 11.3271C14.6 11.9878 14.895 12.9082 14.895 14.0882C14.895 14.9614 14.7062 15.7401 14.3286 16.4245C13.951 17.0853 13.4318 17.6399 12.771 18.0883C12.1103 18.5366 11.3197 18.867 10.3993 19.0794C9.50253 19.3154 8.51136 19.4334 7.42579 19.4334C6.34022 19.4334 5.37265 19.2682 4.52308 18.9378C3.6971 18.631 2.98912 18.1945 2.39914 17.6281C1.80916 17.0617 1.34897 16.4009 1.01858 15.6457C0.688189 14.8906 0.499395 14.0764 0.452196 13.2032H2.61153Z" fill="#5E5E5E"/>
<path d="M-1.17616 7.82256H16.5233V9.59251H-1.17616V7.82256Z" fill="#5E5E5E"/>
</svg>
