<svg width="24" height="25" viewBox="0 0 24 25" fill="none" xmlns="http://www.w3.org/2000/svg">
<path d="M22.5102 11.9577L12.8282 21.6398C11.642 22.8259 10.0333 23.4922 8.35588 23.4922C6.67845 23.4922 5.06972 22.8259 3.8836 21.6398C2.69748 20.4536 2.03112 18.8449 2.03112 17.1675C2.03112 15.49 2.69748 13.8813 3.8836 12.6952L13.5656 3.01315C14.3564 2.22241 15.4289 1.77817 16.5472 1.77817C17.6654 1.77817 18.7379 2.22241 19.5287 3.01315C20.3194 3.8039 20.7637 4.87639 20.7637 5.99467C20.7637 7.11296 20.3194 8.18545 19.5287 8.97619L9.8361 18.6582C9.44073 19.0536 8.90449 19.2757 8.34534 19.2757C7.7862 19.2757 7.24996 19.0536 6.85458 18.6582C6.45921 18.2629 6.23709 17.7266 6.23709 17.1675C6.23709 16.6083 6.45921 16.0721 6.85458 15.6767L15.7991 6.74269" stroke="#5E5E5E" stroke-width="2.27565" stroke-linecap="round" stroke-linejoin="round"/>
</svg>
