<svg width="29" height="29" viewBox="0 0 29 29" fill="none" xmlns="http://www.w3.org/2000/svg">
<path d="M8.39897 27.456H4.60623C3.93563 27.456 3.29249 27.1896 2.81831 26.7154C2.34412 26.2412 2.07773 25.5981 2.07773 24.9275V16.0777C2.07773 15.4071 2.34412 14.764 2.81831 14.2898C3.29249 13.8156 3.93563 13.5492 4.60623 13.5492H8.39897M17.2487 11.0207V5.96375C17.2487 4.95785 16.8491 3.99315 16.1378 3.28188C15.4266 2.5706 14.4619 2.17101 13.456 2.17101L8.39897 13.5492V27.456H22.6597C23.2695 27.4629 23.8612 27.2492 24.3259 26.8542C24.7905 26.4593 25.0968 25.9097 25.1882 25.3068L26.9329 13.9285C26.9879 13.5661 26.9634 13.1961 26.8612 12.8441C26.759 12.4921 26.5815 12.1665 26.341 11.8899C26.1005 11.6133 25.8027 11.3923 25.4683 11.2423C25.1339 11.0922 24.7709 11.0166 24.4044 11.0207H17.2487Z" stroke="#8991A0" stroke-width="2.5285" stroke-linecap="round" stroke-linejoin="round"/>
</svg>
